<svg id="Livello_1" data-name="Livello 1" xmlns="http://www.w3.org/2000/svg" viewBox="0 0 244 265"><defs><style>.cls-1{fill:#fff;}.cls-2{fill:none;}</style></defs><path class="cls-1" d="M42,51H207V213H42Zm82.25,13.85C87,64.8,57.5,94.34,57.51,131.77c0,36.21,29.9,66.15,66.09,66.23a66.58,66.58,0,1,0,.65-133.15Z"/><path class="cls-1" d="M124.25,64.85A66.58,66.58,0,1,1,123.6,198c-36.19-.08-66.07-30-66.09-66.23C57.5,94.34,87,64.8,124.25,64.85ZM124,191.14a60.13,60.13,0,0,0,59.87-59.74C184,98.66,157,71.63,124.12,71.52c-32.65-.11-59.78,26.92-60,59.77C64,163.84,91.26,191.14,124,191.14Z"/><path class="cls-1" d="M124,191.14c-32.74,0-60-27.3-59.85-59.85.19-32.85,27.32-59.88,60-59.77C157,71.63,184,98.66,183.87,131.4A60.13,60.13,0,0,1,124,191.14Zm6.18-21.51V130.92h10.43c.38-4.48.72-8.4,1.11-13H129.8c.26-3.74-.68-8.45.93-9.61,2.7-1.94,7-1.62,10.75-2.26v-13c-4.84,0-9.34-.33-13.78.07-9,.79-12.93,5.11-13.44,14.26-.19,3.42,0,6.86,0,10.3l-7.72.5v12.59l7.76.65v38.12Z"/><path class="cls-1" d="M130.18,169.63H114.27V131.51l-7.76-.65V118.27l7.72-.5c0-3.44-.16-6.88,0-10.3.51-9.15,4.47-13.47,13.44-14.26,4.44-.4,8.94-.07,13.78-.07v13c-3.72.64-8,.32-10.75,2.26-1.61,1.16-.67,5.87-.93,9.61h11.92c-.39,4.56-.73,8.48-1.11,13H130.18Z"/><rect class="cls-2" width="244" height="265"/></svg>