<svg id="Livello_1" data-name="Livello 1" xmlns="http://www.w3.org/2000/svg" viewBox="0 0 158 159"><defs><style>.cls-1{fill:#fff;}</style></defs><path class="cls-1" d="M158,159H0V0H158ZM77.79,146.14a66.39,66.39,0,0,0,66.8-66.56C144.71,43.11,114.72,13,78.28,12.9c-36.89-.06-67.29,30-67.16,66.45A66.64,66.64,0,0,0,77.79,146.14Z"/><path class="cls-1" d="M77.79,146.14A66.64,66.64,0,0,1,11.12,79.35C11,42.92,41.39,12.84,78.28,12.9c36.44.06,66.43,30.21,66.31,66.68A66.39,66.39,0,0,1,77.79,146.14Zm-.34-6.67c32.38.64,59.54-26,60.43-59.39.85-32-26.28-59.72-59-60.29-32.41-.57-60.13,25.78-60.83,57.83A60.11,60.11,0,0,0,77.45,139.47Z"/><path class="cls-1" d="M114.13,79.54c0,5.33.16,10.67,0,16a21.17,21.17,0,0,1-20.61,20.39c-10.33.2-20.67.17-31,0s-19.73-8.14-20.41-18.35a284.36,284.36,0,0,1-.14-34.91c.66-11.34,10-19.38,21.45-19.57,9.67-.16,19.34-.18,29,0,12.61.27,21.58,9.39,21.8,21.93.09,4.83,0,9.66,0,14.49Zm-65.33.3c0,4.67-.06,9.33,0,14,.14,8.64,6,14.89,14.64,15.07q14.49.32,29,0c8.55-.18,14.61-6.5,14.71-15.06q.15-13.74,0-27.49c-.09-10-5.6-15.83-15.7-16.18-9-.3-18-.34-27-.06-10,.3-15.61,6.37-15.67,16.23C48.76,70.85,48.79,75.35,48.8,79.84Z"/><path class="cls-1" d="M96,80.12A17.71,17.71,0,0,1,78,98,17.91,17.91,0,0,1,60,80a18,18,0,1,1,36,.12ZM89.19,80A11,11,0,0,0,77.67,68.79a11.28,11.28,0,0,0,.25,22.55A11,11,0,0,0,89.19,80Z"/><path class="cls-1" d="M97.26,54.5c1.91,3.24,3.81,5,3.69,6.66-.11,1.45-2.76,4-3.74,3.82-1.71-.41-4-2.48-4.17-4.07S95.07,57.63,97.26,54.5Z"/></svg>