<svg id="Livello_1" data-name="Livello 1" xmlns="http://www.w3.org/2000/svg" viewBox="0 0 133.34 133.09"><defs><style>.cls-1{fill:#fff;}</style></defs><path class="cls-1" d="M66.8,0c36.47-.07,66.14,29.53,66.53,66.38.39,36.12-29.94,66.66-66.26,66.71C29.92,133.15.07,103.7,0,66.91-.07,29.54,29.35.07,66.8,0Zm-.3,6.81c-33,0-59.88,27-59.87,60.15,0,32.54,27.17,59.29,60.23,59.33,32.59,0,59.6-27.17,59.54-60S99.44,6.85,66.5,6.81Z"/><path class="cls-1" d="M31.59,100.34c5.65-9.76,4.58-19.3,2.28-29.9-3.95-18.28,10-35.93,27.85-38.26C82,29.53,98.78,42.46,101.23,62.63c2.17,17.89-11.64,34.71-30.49,36.45A36.81,36.81,0,0,1,56.1,97.47a17,17,0,0,0-12.44.17C40.16,99,36.44,99.9,32.82,101Zm9.25-7.24c6.84-4,12.13-3.1,18-.78,4.18,1.65,9.54,1.54,14.11.73,16.33-2.92,26.24-19.73,21.47-35.54s-22.55-24.28-38.08-18c-15.24,6.14-22.2,24-14.62,38.49,1.82,3.5,2.08,6.41.63,9.83C41.9,89,41.66,90.26,40.84,93.1Z"/><path class="cls-1" d="M50.36,57.05c.54-1.21,1.07-3.37,2.3-5,2.33-3.14,5.76-2.64,7.24,1,1.16,2.9,3.61,5.89.18,9.1-.47.43,0,2.66.7,3.39a40.32,40.32,0,0,0,7.81,6.76c1.21.72,3.58-.45,5.4-.83,1.56-.32,3.43-1.5,4.57-1,2.19,1,4.76,2.54,5.61,4.53.49,1.15-1.77,3.91-3.34,5.36-1.06,1-3.08,1.32-4.65,1.29-9.29-.2-23.05-11.51-25.37-20.71A38,38,0,0,1,50.36,57.05Z"/></svg>